<svg width="24" height="24" viewBox="0 0 24 24" fill="none" xmlns="http://www.w3.org/2000/svg">
<path fill-rule="evenodd" clip-rule="evenodd" d="M6 2.25C3.92893 2.25 2.25 3.92893 2.25 6V18C2.25 20.0711 3.92893 21.75 6 21.75H12H18C20.0711 21.75 21.75 20.0711 21.75 18V6C21.75 3.92893 20.0711 2.25 18 2.25H12H6ZM11.25 3.75H6C4.75736 3.75 3.75 4.75736 3.75 6V18C3.75 19.2426 4.75736 20.25 6 20.25H11.25V3.75ZM12.75 20.25V3.75H18C19.2426 3.75 20.25 4.75736 20.25 6V18C20.25 19.2426 19.2426 20.25 18 20.25H12.75Z" fill="#171717"/>
</svg>
