<svg width="44" height="44" viewBox="0 0 44 44" fill="none" xmlns="http://www.w3.org/2000/svg">
<rect width="44" height="44" rx="4" fill="#FAFAFA"/>
<path d="M22.0001 4.58342V11.0001M22.0001 39.4168V33.0001M26.5834 6.41675L22.4717 3.94972C22.1814 3.77555 21.8187 3.77555 21.5284 3.94972L17.4167 6.41675M26.5834 37.5834L22.4717 40.0504C22.1814 40.2246 21.8187 40.2246 21.5284 40.0504L17.4167 37.5834M7.33326 30.2495L12.4673 27.5034M36.6667 13.7501L31.5199 16.5034M6.213 25.8224L6.13235 30.6168C6.12666 30.9553 6.30799 31.2693 6.60397 31.4337L10.7963 33.761M33.2042 10.2391L37.3965 12.5664C37.6925 12.7307 37.8738 13.0448 37.8681 13.3833L37.7875 18.1777M36.6667 30.2501L31.5259 27.5M7.33312 13.75L12.4733 16.5M33.2038 33.7611L37.3961 31.4337C37.6921 31.2694 37.8734 30.9554 37.8678 30.6169L37.7871 25.8225M6.21262 18.1777L6.13197 13.3834C6.12627 13.0449 6.3076 12.7308 6.60359 12.5665L10.796 10.2392M22.0001 22.0001L26.5834 19.2501M22.0001 22.0001V27.5001M22.0001 22.0001L17.4167 19.2501" stroke="#171717" stroke-width="2" stroke-linecap="round"/>
</svg>
