<svg width="58" height="58" viewBox="0 0 58 58" fill="none" xmlns="http://www.w3.org/2000/svg">
<path d="M54.815 0H57.424C57.7421 0 58 0.257884 58 0.576V2.86606V55.1339V57.424C58 57.7421 57.7421 58 57.424 58L54.815 58H52.9711L52.2061 58C51.8879 58 51.6301 57.7421 51.6301 57.424V56.7932V7.08972C51.6301 6.3355 50.9595 5.80754 50.2052 5.80754H46.685C45.8468 5.80754 45.1763 6.41092 45.1763 7.16515V29.6291V31.9946C45.1763 32.3127 44.9184 32.5706 44.6003 32.5706H41.9075H40.0636C39.3092 32.5706 38.7225 33.0986 38.7225 33.7774V48.1891V50.4791C38.7225 50.7973 38.4647 51.0551 38.1465 51.0551H35.4538H33.7775C32.9393 51.0551 32.2688 51.7339 32.2688 52.4882V55.1339V57.424C32.2688 57.7421 32.0109 58 31.6928 58H28.9162H26.391C26.0729 58 25.815 57.7421 25.815 57.424V55.0585V52.4882C25.815 51.7339 25.0607 51.0551 24.2225 51.0551H22.5462H19.9373C19.6192 51.0551 19.3613 50.7973 19.3613 50.4791V48.1891V33.1466C19.3613 32.8285 19.1034 32.5706 18.7853 32.5706H16.0925H13.4835C13.1654 32.5706 12.9075 32.3127 12.9075 31.9946V29.6291V7.16515C12.9075 6.41092 12.1532 5.80754 11.315 5.80754H7.87861C7.04046 5.80754 6.45376 6.3355 6.45376 7.08972V55.1339V57.424C6.45376 57.7421 6.19587 58 5.87776 58L3.18497 58H1.42486L0.576002 58C0.257885 58 0 57.7421 0 57.424V56.7932V2.86606V0.576C0 0.257884 0.257884 0 0.576 0H3.18497H9.63873H12.3315C12.6496 0 12.9075 0.257884 12.9075 0.576V2.86606V4.37451C12.9075 5.12874 13.578 5.80754 14.4162 5.80754H16.0925H18.7853C19.1034 5.80754 19.3613 6.06543 19.3613 6.38354V8.6736V25.4809C19.3613 26.1597 19.948 26.7631 20.7023 26.7631H22.5462H25.239C25.5571 26.7631 25.815 27.021 25.815 27.3391V29.6291V49.6975C25.815 50.4518 26.4855 51.0551 27.3237 51.0551H30.6763C31.5145 51.0551 32.2688 50.4518 32.2688 49.6975V29.6291V27.3391C32.2688 27.021 32.5267 26.7631 32.8448 26.7631H35.4538H37.2977C38.052 26.7631 38.7225 26.1597 38.7225 25.4809V8.6736V6.38354C38.7225 6.06543 38.9804 5.80754 39.2985 5.80754H41.9075H43.5838C44.422 5.80754 45.1763 5.12874 45.1763 4.37451V2.86606V0.576C45.1763 0.257884 45.4342 0 45.7523 0H48.3613H54.815Z" fill="#171717"/>
</svg>
