<svg width="1122" height="469" viewBox="0 0 1122 469" fill="none" xmlns="http://www.w3.org/2000/svg">
<rect x="1.51804" y="1.51804" width="93.247" height="93.247" stroke="#D8D8D8" stroke-width="1.03608"/>
<rect x="94.768" y="1.51804" width="93.247" height="93.247" stroke="#D8D8D8" stroke-width="1.03608"/>
<rect x="188.01" y="1.51804" width="93.247" height="93.247" stroke="#D8D8D8" stroke-width="1.03608"/>
<rect x="281.26" y="1.51804" width="93.247" height="93.247" stroke="#D8D8D8" stroke-width="1.03608"/>
<rect x="374.502" y="1.51804" width="93.247" height="93.247" stroke="#D8D8D8" stroke-width="1.03608"/>
<rect x="467.752" y="1.51804" width="93.247" height="93.247" stroke="#D8D8D8" stroke-width="1.03608"/>
<rect x="561.002" y="1.51804" width="93.247" height="93.247" stroke="#D8D8D8" stroke-width="1.03608"/>
<rect x="654.245" y="1.51804" width="93.247" height="93.247" stroke="#D8D8D8" stroke-width="1.03608"/>
<rect x="747.495" y="1.51804" width="93.247" height="93.247" stroke="#D8D8D8" stroke-width="1.03608"/>
<rect x="840.745" y="1.51804" width="93.247" height="93.247" stroke="#D8D8D8" stroke-width="1.03608"/>
<rect x="933.987" y="1.51804" width="93.247" height="93.247" stroke="#D8D8D8" stroke-width="1.03608"/>
<rect x="1027.24" y="1.51804" width="93.247" height="93.247" stroke="#D8D8D8" stroke-width="1.03608"/>
<rect x="1.51804" y="94.8012" width="93.247" height="93.247" stroke="#D8D8D8" stroke-width="1.03608"/>
<rect x="94.768" y="94.8012" width="93.247" height="93.247" stroke="#D8D8D8" stroke-width="1.03608"/>
<rect x="188.01" y="94.8012" width="93.247" height="93.247" stroke="#D8D8D8" stroke-width="1.03608"/>
<rect x="281.26" y="94.8012" width="93.247" height="93.247" stroke="#D8D8D8" stroke-width="1.03608"/>
<rect x="374.502" y="94.8012" width="93.247" height="93.247" stroke="#D8D8D8" stroke-width="1.03608"/>
<rect x="467.752" y="94.8012" width="93.247" height="93.247" stroke="#D8D8D8" stroke-width="1.03608"/>
<rect x="561.002" y="94.8012" width="93.247" height="93.247" stroke="#D8D8D8" stroke-width="1.03608"/>
<rect x="654.245" y="94.8012" width="93.247" height="93.247" stroke="#D8D8D8" stroke-width="1.03608"/>
<rect x="747.495" y="94.8012" width="93.247" height="93.247" stroke="#D8D8D8" stroke-width="1.03608"/>
<rect x="840.745" y="94.8012" width="93.247" height="93.247" stroke="#D8D8D8" stroke-width="1.03608"/>
<rect x="933.987" y="94.8012" width="93.247" height="93.247" stroke="#D8D8D8" stroke-width="1.03608"/>
<rect x="1027.24" y="94.8012" width="93.247" height="93.247" stroke="#D8D8D8" stroke-width="1.03608"/>
<rect x="1.51804" y="188.084" width="93.247" height="93.247" stroke="#D8D8D8" stroke-width="1.03608"/>
<rect x="94.768" y="188.084" width="93.247" height="93.247" stroke="#D8D8D8" stroke-width="1.03608"/>
<rect x="188.01" y="188.084" width="93.247" height="93.247" stroke="#D8D8D8" stroke-width="1.03608"/>
<rect x="281.26" y="188.084" width="93.247" height="93.247" stroke="#D8D8D8" stroke-width="1.03608"/>
<rect x="374.502" y="188.084" width="93.247" height="93.247" stroke="#D8D8D8" stroke-width="1.03608"/>
<rect x="467.752" y="188.084" width="93.247" height="93.247" stroke="#D8D8D8" stroke-width="1.03608"/>
<rect x="561.002" y="188.084" width="93.247" height="93.247" stroke="#D8D8D8" stroke-width="1.03608"/>
<rect x="654.245" y="188.084" width="93.247" height="93.247" stroke="#D8D8D8" stroke-width="1.03608"/>
<rect x="747.495" y="188.084" width="93.247" height="93.247" stroke="#D8D8D8" stroke-width="1.03608"/>
<rect x="840.745" y="188.084" width="93.247" height="93.247" stroke="#D8D8D8" stroke-width="1.03608"/>
<rect x="933.987" y="188.084" width="93.247" height="93.247" stroke="#D8D8D8" stroke-width="1.03608"/>
<rect x="1027.24" y="188.084" width="93.247" height="93.247" stroke="#D8D8D8" stroke-width="1.03608"/>
<rect x="1.51804" y="281.518" width="93.247" height="93.247" stroke="#D8D8D8" stroke-width="1.03608"/>
<rect x="94.768" y="281.518" width="93.247" height="93.247" stroke="#D8D8D8" stroke-width="1.03608"/>
<rect x="188.01" y="281.518" width="93.247" height="93.247" stroke="#D8D8D8" stroke-width="1.03608"/>
<rect x="281.26" y="281.518" width="93.247" height="93.247" stroke="#D8D8D8" stroke-width="1.03608"/>
<rect x="374.502" y="281.518" width="93.247" height="93.247" stroke="#D8D8D8" stroke-width="1.03608"/>
<rect x="467.752" y="281.518" width="93.247" height="93.247" stroke="#D8D8D8" stroke-width="1.03608"/>
<rect x="561.002" y="281.518" width="93.247" height="93.247" stroke="#D8D8D8" stroke-width="1.03608"/>
<rect x="654.245" y="281.518" width="93.247" height="93.247" stroke="#D8D8D8" stroke-width="1.03608"/>
<rect x="747.495" y="281.518" width="93.247" height="93.247" stroke="#D8D8D8" stroke-width="1.03608"/>
<rect x="840.745" y="281.518" width="93.247" height="93.247" stroke="#D8D8D8" stroke-width="1.03608"/>
<rect x="933.987" y="281.518" width="93.247" height="93.247" stroke="#D8D8D8" stroke-width="1.03608"/>
<rect x="1027.24" y="281.518" width="93.247" height="93.247" stroke="#D8D8D8" stroke-width="1.03608"/>
<rect x="1.51804" y="374.518" width="93.247" height="93.247" stroke="#D8D8D8" stroke-width="1.03608"/>
<rect x="94.768" y="374.518" width="93.247" height="93.247" stroke="#D8D8D8" stroke-width="1.03608"/>
<rect x="188.01" y="374.518" width="93.247" height="93.247" stroke="#D8D8D8" stroke-width="1.03608"/>
<rect x="281.26" y="374.518" width="93.247" height="93.247" stroke="#D8D8D8" stroke-width="1.03608"/>
<rect x="374.502" y="374.518" width="93.247" height="93.247" stroke="#D8D8D8" stroke-width="1.03608"/>
<rect x="467.752" y="374.518" width="93.247" height="93.247" stroke="#D8D8D8" stroke-width="1.03608"/>
<rect x="561.002" y="374.518" width="93.247" height="93.247" stroke="#D8D8D8" stroke-width="1.03608"/>
<rect x="654.245" y="374.518" width="93.247" height="93.247" stroke="#D8D8D8" stroke-width="1.03608"/>
<rect x="747.495" y="374.518" width="93.247" height="93.247" stroke="#D8D8D8" stroke-width="1.03608"/>
<rect x="840.745" y="374.518" width="93.247" height="93.247" stroke="#D8D8D8" stroke-width="1.03608"/>
<rect x="933.987" y="374.518" width="93.247" height="93.247" stroke="#D8D8D8" stroke-width="1.03608"/>
<rect x="1027.24" y="374.518" width="93.247" height="93.247" stroke="#D8D8D8" stroke-width="1.03608"/>
<path d="M1121 234.5C934.333 -76.8333 747.667 -76.8333 561 234.5C374.333 545.833 187.667 545.833 0.999992 234.5" stroke="#EEEEEE" stroke-width="2"/>
</svg>
