<svg width="561" height="500" viewBox="0 0 561 500" fill="none" xmlns="http://www.w3.org/2000/svg">
<g clip-path="url(#clip0_3193_6623)">
<g clip-path="url(#clip1_3193_6623)">
<rect x="-6.89946" y="-32.2198" width="142.478" height="142.478" stroke="#F0F0F0" stroke-width="0.919839"/>
<rect x="134.921" y="-32.2198" width="142.478" height="142.478" stroke="#F0F0F0" stroke-width="0.919839"/>
<rect x="276.733" y="-32.2198" width="142.478" height="142.478" stroke="#F0F0F0" stroke-width="0.919839"/>
<rect x="418.569" y="-32.2198" width="142.478" height="142.478" stroke="#F0F0F0" stroke-width="0.919839"/>
<rect x="560.382" y="-32.2198" width="142.478" height="142.478" stroke="#F0F0F0" stroke-width="0.919839"/>
<rect x="-6.89946" y="109.657" width="142.478" height="142.478" stroke="#F0F0F0" stroke-width="0.919839"/>
<rect x="134.921" y="109.657" width="142.478" height="142.478" stroke="#F0F0F0" stroke-width="0.919839"/>
<rect x="276.733" y="109.657" width="142.478" height="142.478" stroke="#F0F0F0" stroke-width="0.919839"/>
<rect x="418.569" y="109.657" width="142.478" height="142.478" stroke="#F0F0F0" stroke-width="0.919839"/>
<rect x="560.382" y="109.657" width="142.478" height="142.478" stroke="#F0F0F0" stroke-width="0.919839"/>
<rect x="-6.89946" y="251.534" width="142.478" height="142.478" stroke="#F0F0F0" stroke-width="0.919839"/>
<rect x="134.921" y="251.534" width="142.478" height="142.478" stroke="#F0F0F0" stroke-width="0.919839"/>
<rect x="276.733" y="251.534" width="142.478" height="142.478" stroke="#F0F0F0" stroke-width="0.919839"/>
<rect x="418.569" y="251.534" width="142.478" height="142.478" stroke="#F0F0F0" stroke-width="0.919839"/>
<rect x="560.382" y="251.534" width="142.478" height="142.478" stroke="#F0F0F0" stroke-width="0.919839"/>
<rect x="-6.89946" y="393.64" width="142.478" height="142.478" stroke="#F0F0F0" stroke-width="0.919839"/>
<rect x="134.921" y="393.64" width="142.478" height="142.478" stroke="#F0F0F0" stroke-width="0.919839"/>
<rect x="276.733" y="393.642" width="142.478" height="142.478" stroke="#F0F0F0" stroke-width="0.919839"/>
<rect x="418.569" y="393.64" width="142.478" height="142.478" stroke="#F0F0F0" stroke-width="0.919839"/>
<rect x="560.382" y="393.64" width="142.478" height="142.478" stroke="#F0F0F0" stroke-width="0.919839"/>
</g>
</g>
<defs>
<clipPath id="clip0_3193_6623">
<rect width="561" height="500" fill="white"/>
</clipPath>
<clipPath id="clip1_3193_6623">
<rect width="561" height="534.426" fill="white" transform="translate(0 -6)"/>
</clipPath>
</defs>
</svg>
