<svg width="42" height="34" viewBox="0 0 42 34" fill="none" xmlns="http://www.w3.org/2000/svg">
<path d="M2.94128 7.98928L2.91884 8.11917L3.02936 8.19101L17.3264 17.4841C18.0582 17.9598 18.9972 17.9767 19.7456 17.5276L34.0064 8.97112L33.9035 8.79962L34.0064 8.97111C34.0749 8.93001 34.1168 8.85597 34.1168 8.77604C34.1168 6.53375 32.2991 4.71602 30.0568 4.71602H6.8335C4.92443 4.71602 3.33208 6.07014 2.96374 7.87016C2.95566 7.90966 2.94817 7.94937 2.94128 7.98928ZM3.19249 10.8017L2.8835 10.6008V10.9694V25.3327C2.8835 27.5142 4.65197 29.2827 6.8335 29.2827H30.1668C32.3484 29.2827 34.1168 27.5142 34.1168 25.3327V11.7071V11.3538L33.8139 11.5356L20.826 19.3283C19.3893 20.1904 17.5868 20.158 16.182 19.2448L3.19249 10.8017ZM0.783496 8.66602C0.783496 5.32469 3.49217 2.61602 6.8335 2.61602H30.1668C33.5082 2.61602 36.2168 5.32469 36.2168 8.66602V25.3327C36.2168 28.674 33.5082 31.3827 30.1668 31.3827H6.8335C3.49217 31.3827 0.783496 28.674 0.783496 25.3327V8.66602Z" fill="#1F1F1F" stroke="white" stroke-width="0.4" stroke-linecap="round"/>
<rect x="27" y="18" width="14" height="14" rx="7" fill="#171717"/>
<path d="M37.6667 23L33.5547 27.1119C33.3897 27.2769 33.3072 27.3594 33.2121 27.3904C33.1284 27.4175 33.0383 27.4175 32.9546 27.3904C32.8594 27.3594 32.7769 27.2769 32.6119 27.1119L31 25.5" stroke="white" stroke-width="1.5" stroke-linecap="round" stroke-linejoin="round"/>
</svg>
