<svg width="95" height="16" viewBox="0 0 95 16" fill="none" xmlns="http://www.w3.org/2000/svg">
<path d="M11.9383 0H16.0603V15.7303H13.7656L13.7868 1.41573L9.64361 15.7303H6.41401L2.27078 1.46067V15.7303H-0.00268555V0H4.16179L8.05006 14.2921L11.9383 0Z" fill="#171717"/>
<path d="M17.7584 9.8427C17.7584 7.82022 18.2542 6.29214 19.2457 5.25843C20.2373 4.20974 21.5546 3.68539 23.1977 3.68539C26.6681 3.68539 28.4033 5.87266 28.4033 10.2472V10.5393H20.0319C20.1169 11.7528 20.4498 12.6816 21.0305 13.3258C21.6254 13.9551 22.3974 14.2697 23.3465 14.2697C24.6921 14.2697 25.6058 13.6629 26.0874 12.4494L28.2546 12.6067C27.9571 13.6704 27.3835 14.5019 26.5336 15.1011C25.6979 15.7004 24.6355 16 23.3465 16C21.6325 16 20.2727 15.4831 19.267 14.4494C18.2613 13.4157 17.7584 11.8801 17.7584 9.8427ZM20.0531 8.96629H26.1511C26.1086 7.85768 25.8253 6.98876 25.3012 6.35955C24.7771 5.73034 24.076 5.41573 23.1977 5.41573C22.3195 5.41573 21.5971 5.71536 21.0305 6.31461C20.4781 6.91386 20.1523 7.79775 20.0531 8.96629Z" fill="#171717"/>
<path d="M39.1978 15.7303H36.4782L33.546 11.4157L30.6351 15.7303H28.0217L32.2499 9.77528L28.2129 3.95506H30.9539L33.6098 8.11236L36.2869 3.95506H38.9004L34.9271 9.70787L39.1978 15.7303Z" fill="#171717"/>
<path d="M39.2574 12.6067C39.2574 10.4494 40.7518 9.22097 43.7406 8.92135L46.8852 8.60674V7.70787C46.8852 7.01873 46.6798 6.46442 46.269 6.04494C45.8724 5.62547 45.2704 5.41573 44.463 5.41573C43.7406 5.41573 43.1457 5.59551 42.6782 5.95506C42.2108 6.29962 41.9558 6.80899 41.9133 7.48315H39.8311C39.8736 6.17978 40.3198 5.22097 41.1697 4.60674C42.0196 3.99251 43.1173 3.68539 44.463 3.68539C45.9787 3.68539 47.1402 4.06742 47.9476 4.83146C48.755 5.59551 49.1587 6.7191 49.1587 8.20225V15.7303H47.0552V13.4382C46.7011 14.2472 46.1699 14.8764 45.4616 15.3258C44.7534 15.7753 43.8964 16 42.8907 16C41.6867 16 40.7801 15.6854 40.171 15.0562C39.562 14.427 39.2574 13.6105 39.2574 12.6067ZM41.5096 12.4944C41.5096 13.0337 41.6796 13.4757 42.0196 13.8202C42.3737 14.1498 42.8978 14.3146 43.5919 14.3146C44.5976 14.3146 45.3979 13.985 45.9928 13.3258C46.5877 12.6517 46.8852 11.7903 46.8852 10.7416V10.1124L44.0381 10.4045C42.3524 10.5843 41.5096 11.2809 41.5096 12.4944Z" fill="#171717"/>
<path d="M51.0153 15.7303V3.95506H53.2888V8.74157H58.6006V3.95506H60.8741V15.7303H58.6006V10.7191H53.2888V15.7303H51.0153Z" fill="#171717"/>
<path d="M69.6854 3.95506H73.0638V15.7303H70.8753V5.70787L66.2009 15.7303H62.8225V3.95506H65.011V13.9775L69.6854 3.95506Z" fill="#171717"/>
<path d="M85.2865 15.7303H82.4606L78.6148 10.7191H77.2975V15.7303H75.024V3.95506H77.2975V8.83146H78.6573L82.2906 3.95506H84.989L80.2721 9.57303L85.2865 15.7303Z" fill="#171717"/>
<path d="M85.0961 12.6067C85.0961 10.4494 86.5905 9.22097 89.5792 8.92135L92.7238 8.60674V7.70787C92.7238 7.01873 92.5185 6.46442 92.1077 6.04494C91.7111 5.62547 91.1091 5.41573 90.3017 5.41573C89.5792 5.41573 88.9843 5.59551 88.5169 5.95506C88.0494 6.29962 87.7945 6.80899 87.752 7.48315H85.6697C85.7122 6.17978 86.1584 5.22097 87.0083 4.60674C87.8582 3.99251 88.956 3.68539 90.3017 3.68539C91.8173 3.68539 92.9788 4.06742 93.7862 4.83146C94.5936 5.59551 94.9973 6.7191 94.9973 8.20225V15.7303H92.8938V13.4382C92.5397 14.2472 92.0085 14.8764 91.3003 15.3258C90.592 15.7753 89.7351 16 88.7293 16C87.5253 16 86.6188 15.6854 86.0097 15.0562C85.4006 14.427 85.0961 13.6105 85.0961 12.6067ZM87.3483 12.4944C87.3483 13.0337 87.5182 13.4757 87.8582 13.8202C88.2123 14.1498 88.7364 14.3146 89.4305 14.3146C90.4362 14.3146 91.2365 13.985 91.8315 13.3258C92.4264 12.6517 92.7238 11.7903 92.7238 10.7416V10.1124L89.8767 10.4045C88.1911 10.5843 87.3483 11.2809 87.3483 12.4944Z" fill="#171717"/>
</svg>
